<svg width="104" height="32" viewBox="0 0 104 32" fill="none" xmlns="http://www.w3.org/2000/svg">
<path d="M10.7531 10.396L9.42377 8.8597L12.7352 5.23781L15.7442 11.5662H34.4427V1.6796C34.4427 0.756219 33.6944 0 32.7631 0H23.975C23.2347 0 22.582 0.485572 22.3671 1.19403L19.3183 11.2557L14.6934 1.54428C14.4228 0.819901 13.0457 0.00796046 11.9392 1.13831L7.21879 6.31244L5.977 4.87164C5.32426 4.13134 4.16207 4.05174 3.4377 4.87164L0.484462 8.27861C-0.120513 8.9791 -0.040911 10.0378 0.659586 10.6428C1.36008 11.2478 2.41879 11.1682 3.02377 10.4677L4.70337 8.51741L7.26655 11.4866L5.26058 13.803C4.65561 14.5035 4.76705 15.5303 5.43571 16.1672C5.88944 16.605 7.03571 16.8836 7.79988 15.992L10.7531 12.5771C11.2944 11.9642 11.2944 11.0249 10.7531 10.396Z" fill="#22B7B2"/>
<path d="M30.8048 14.9174H17.575C12.8546 14.9174 9.03369 18.7383 9.03369 23.4587C9.03369 28.1791 12.8546 32 17.575 32H30.2795C35.1431 32 39.0834 28.0597 39.0834 23.196C39.0834 18.6189 35.374 14.9174 30.8048 14.9174ZM16.564 25.1304C15.6407 25.1304 14.8924 24.3821 14.8924 23.4587C14.8924 22.5353 15.6407 21.7871 16.564 21.7871C17.4874 21.7871 18.2357 22.5353 18.2357 23.4587C18.2357 24.3821 17.4874 25.1304 16.564 25.1304ZM31.5531 25.1304C30.6297 25.1304 29.8815 24.3821 29.8815 23.4587C29.8815 22.5353 30.6297 21.7871 31.5531 21.7871C32.4765 21.7871 33.2247 22.5353 33.2247 23.4587C33.2247 24.3821 32.4765 25.1304 31.5531 25.1304Z" fill="#22B7B2"/>
<path d="M56.7146 11.9962C56.2293 12.7203 55.6342 13.2527 54.9292 13.5932C54.2254 13.9326 53.3589 14.1023 52.3303 14.1023C48.8322 14.1023 47.0835 12.1415 47.0835 8.2186C47.0835 6.21009 47.5263 4.72696 48.4132 3.76919C49.3012 2.81143 50.5798 2.33255 52.2489 2.33255C53.3537 2.33255 54.2539 2.51969 54.9502 2.89279C55.6476 3.26474 56.1782 3.75292 56.5426 4.35733L54.7549 5.74516C54.4945 5.35345 54.2551 5.07042 54.0366 4.89666C53.8192 4.72172 53.5722 4.59096 53.295 4.50379C53.0172 4.41719 52.6848 4.37361 52.2977 4.37361C51.3737 4.37361 50.6693 4.66884 50.1846 5.2593C49.7011 5.84977 49.4593 6.83659 49.4593 8.2186C49.4593 9.50821 49.686 10.4712 50.1404 11.1082C50.5943 11.744 51.319 12.0613 52.314 12.0613C52.9835 12.0613 53.5042 11.9334 53.8762 11.6777C54.2493 11.422 54.5887 11.082 54.8944 10.6572L56.7146 11.9962Z" fill="#22B7B2"/>
<path d="M66.1399 9.60408C66.1399 11.0303 65.8104 12.1391 65.1519 12.9307C64.4929 13.7228 63.4561 14.1186 62.0415 14.1186C59.2996 14.1186 57.9292 12.6139 57.9292 9.60408C57.9292 8.15814 58.2581 7.03939 58.9172 6.24726C59.5756 5.45571 60.6171 5.05936 62.0415 5.05936C63.4561 5.05936 64.4929 5.45571 65.1519 6.24726C65.8104 7.03939 66.1399 8.15814 66.1399 9.60408ZM63.9594 9.60408C63.9594 8.66375 63.8118 7.97681 63.5177 7.54442C63.2248 7.11204 62.7325 6.89584 62.0415 6.89584C61.3563 6.89584 60.8612 7.11785 60.5561 7.5607C60.2521 8.00413 60.1004 8.68525 60.1004 9.60408C60.1004 10.5188 60.2515 11.1918 60.5537 11.6242C60.856 12.0566 61.3517 12.2728 62.0415 12.2728C62.7215 12.2728 63.2114 12.0601 63.5107 11.6335C63.8094 11.2058 63.9594 10.5293 63.9594 9.60408Z" fill="#22B7B2"/>
<path d="M73.5893 13.8652V9.14844C73.5893 8.25577 73.5085 7.66008 73.3475 7.36078C73.1877 7.06206 72.8849 6.91211 72.4386 6.91211C71.8138 6.91211 71.0607 7.32532 70.179 8.15116V13.8652H68.0729V5.30345H70.179V6.41464C70.6254 5.9683 71.1008 5.63122 71.6064 5.40341C72.1131 5.17443 72.6083 5.05936 73.0918 5.05936C73.9671 5.05936 74.6197 5.2988 75.0492 5.77768C75.4798 6.25656 75.6955 7.04811 75.6955 8.15116V13.8652H73.5893Z" fill="#22B7B2"/>
<path d="M52.8603 20.2247V29.4141H50.5589V20.2247H47.0835V18.1186H56.338V20.2247H52.8603Z" fill="white"/>
<path d="M62.9719 22.9097C62.7545 22.8016 62.4662 22.747 62.1071 22.747C61.7148 22.747 61.3434 22.8411 60.9936 23.0283C60.6431 23.216 60.2828 23.4897 59.9126 23.8489V29.4141H57.8065V20.8524H59.9126V22.0775C60.2718 21.6858 60.6577 21.3615 61.0703 21.1058C61.4841 20.8501 61.9467 20.7222 62.4581 20.7222C62.8934 20.7222 63.2032 20.7797 63.388 20.8942L62.9719 22.9097Z" fill="white"/>
<path d="M69.7129 29.4141V28.5237C68.8807 29.2862 67.9886 29.6675 67.0372 29.6675C66.0899 29.6675 65.3739 29.4187 64.8892 28.9212C64.4057 28.4226 64.1639 27.7839 64.1639 27.0057C64.1639 26.3967 64.2871 25.894 64.5336 25.497C64.7811 25.1007 65.1484 24.7892 65.6355 24.5625C66.1236 24.3364 66.8245 24.1766 67.7393 24.0836L69.5409 23.9139V23.5303C69.5409 23.0515 69.3968 22.7237 69.1085 22.547C68.8202 22.3703 68.3983 22.282 67.8439 22.282C67.3865 22.282 66.9936 22.3581 66.6653 22.5098C66.3363 22.6621 66.0934 22.8794 65.9353 23.1631L64.2941 22.11C64.5824 21.6253 65.0339 21.2539 65.6494 20.9965C66.2643 20.7378 67.007 20.6082 67.8764 20.6082C69.209 20.6082 70.1709 20.8407 70.7613 21.3056C71.3518 21.7706 71.647 22.5342 71.647 23.5954V29.4141H69.7129ZM69.5409 25.4389L68.4739 25.5365C67.7172 25.6034 67.1721 25.7481 66.8373 25.9712C66.5026 26.1933 66.3352 26.5268 66.3352 26.9732C66.3352 27.3655 66.4433 27.6334 66.6606 27.7775C66.8791 27.9216 67.1674 27.9937 67.5254 27.9937C67.7811 27.9937 68.0926 27.9141 68.4599 27.7543C68.8272 27.5933 69.1875 27.3655 69.5409 27.0708V25.4389Z" fill="white"/>
<path d="M81.0327 28.189C80.7055 28.6743 80.2755 29.0421 79.7425 29.2932C79.209 29.5425 78.5349 29.6675 77.7201 29.6675C76.3375 29.6675 75.292 29.2909 74.5841 28.5377C73.8774 27.7833 73.524 26.6657 73.524 25.1855C73.524 23.7442 73.8664 22.6214 74.5515 21.8171C75.2379 21.0116 76.266 20.6082 77.6364 20.6082C78.371 20.6082 79.0248 20.7285 79.5984 20.9686C80.1732 21.2074 80.6102 21.5771 80.9095 22.0774L79.3427 23.1956C79.1521 22.9399 78.9289 22.751 78.6732 22.6284C78.4175 22.5063 78.0879 22.4447 77.6852 22.4447C76.9675 22.4447 76.456 22.6656 76.1509 23.1073C75.847 23.5478 75.6953 24.2295 75.6953 25.153C75.6953 26.0782 75.8516 26.7547 76.1649 27.1824C76.4775 27.609 77.0122 27.8217 77.7689 27.8217C78.0943 27.8217 78.3925 27.7764 78.6639 27.6845C78.9364 27.5915 79.1951 27.387 79.4403 27.0708L81.0327 28.189Z" fill="white"/>
<path d="M87.3317 29.4141C86.7657 29.5826 86.17 29.6675 85.544 29.6675C84.5537 29.6675 83.8406 29.4443 83.4053 28.998C82.9712 28.5516 82.7544 27.8281 82.7544 26.8267V22.5261H81.6688V20.8524H82.7544V18.4696H84.8606V20.8524H86.8505V22.5261H84.8606V26.5571C84.8606 27.0906 84.9431 27.4521 85.1093 27.6427C85.275 27.8333 85.5098 27.9286 85.8137 27.9286C86.2008 27.9286 86.5843 27.8496 86.9644 27.6915L87.3317 29.4141Z" fill="white"/>
<path d="M96.4079 25.153C96.4079 26.5791 96.0783 27.688 95.4199 28.4796C94.7608 29.2717 93.724 29.6675 92.3095 29.6675C89.5675 29.6675 88.1971 28.1628 88.1971 25.153C88.1971 23.707 88.5261 22.5883 89.1851 21.7961C89.8436 21.0046 90.885 20.6082 92.3095 20.6082C93.724 20.6082 94.7608 21.0046 95.4199 21.7961C96.0783 22.5883 96.4079 23.707 96.4079 25.153ZM94.2273 25.153C94.2273 24.2126 94.0797 23.5257 93.7856 23.0933C93.4927 22.6609 93.0005 22.4447 92.3095 22.4447C91.6243 22.4447 91.1291 22.6667 90.824 23.1096C90.5201 23.553 90.3684 24.2341 90.3684 25.153C90.3684 26.0677 90.5195 26.7407 90.8217 27.1731C91.1239 27.6055 91.6196 27.8217 92.3095 27.8217C92.9894 27.8217 93.4794 27.609 93.7787 27.1824C94.0774 26.7547 94.2273 26.0782 94.2273 25.153Z" fill="white"/>
<path d="M103.506 22.9097C103.289 22.8016 103 22.747 102.641 22.747C102.249 22.747 101.878 22.8411 101.528 23.0283C101.177 23.216 100.817 23.4897 100.447 23.8489V29.4141H98.3407V20.8524H100.447V22.0775C100.806 21.6858 101.192 21.3615 101.605 21.1058C102.018 20.8501 102.481 20.7222 102.992 20.7222C103.428 20.7222 103.737 20.7797 103.922 20.8942L103.506 22.9097Z" fill="white"/>
</svg>
