<svg width="40" height="32" viewBox="0 0 40 32" fill="none" xmlns="http://www.w3.org/2000/svg">
<path d="M10.7531 10.396L9.42377 8.8597L12.7352 5.23781L15.7442 11.5662H34.4427V1.6796C34.4427 0.756219 33.6944 0 32.7631 0H23.975C23.2347 0 22.582 0.485572 22.3671 1.19403L19.3183 11.2557L14.6934 1.54428C14.4228 0.819901 13.0457 0.00796046 11.9392 1.13831L7.21879 6.31244L5.977 4.87164C5.32426 4.13134 4.16207 4.05174 3.4377 4.87164L0.484462 8.27861C-0.120513 8.9791 -0.040911 10.0378 0.659586 10.6428C1.36008 11.2478 2.41879 11.1682 3.02377 10.4677L4.70337 8.51741L7.26655 11.4866L5.26058 13.803C4.65561 14.5035 4.76705 15.5303 5.43571 16.1672C5.88944 16.605 7.03571 16.8836 7.79988 15.992L10.7531 12.5771C11.2944 11.9642 11.2944 11.0249 10.7531 10.396Z" fill="#22B7B2"/>
<path d="M30.8048 14.9174H17.575C12.8546 14.9174 9.03369 18.7383 9.03369 23.4587C9.03369 28.1791 12.8546 32 17.575 32H30.2795C35.1431 32 39.0834 28.0597 39.0834 23.196C39.0834 18.6189 35.374 14.9174 30.8048 14.9174ZM16.564 25.1304C15.6407 25.1304 14.8924 24.3821 14.8924 23.4587C14.8924 22.5353 15.6407 21.7871 16.564 21.7871C17.4874 21.7871 18.2357 22.5353 18.2357 23.4587C18.2357 24.3821 17.4874 25.1304 16.564 25.1304ZM31.5531 25.1304C30.6297 25.1304 29.8815 24.3821 29.8815 23.4587C29.8815 22.5353 30.6297 21.7871 31.5531 21.7871C32.4765 21.7871 33.2247 22.5353 33.2247 23.4587C33.2247 24.3821 32.4765 25.1304 31.5531 25.1304Z" fill="#22B7B2"/>
</svg>
